<svg width="400" height="400" viewBox="0 0 400 400" fill="none" xmlns="http://www.w3.org/2000/svg">
<path d="M68.39 111.466C47.721 138.678 103.649 211.199 106.835 322.318C210.566 358.141 179.979 436.754 322.942 297.441L311.305 272.563V240.122L335.172 210.105C335.726 186.334 323.219 88.5971 297.951 71.3488C309.92 107.172 294.78 164.199 284.806 175.808L265.961 163.313V128.485L257.649 87.0226V24L223.2 56.9598L211.564 91.7881L214.896 139.884C212.126 142.648 214.821 148.387 201.522 128.485C188.223 108.583 172.677 50.7517 167.69 32.5083L151.066 70.6536L144.416 113.774L137.846 128.485L122.494 154.534L103.649 128.485L103.649 71.3488L68.39 111.466Z" fill="#554949" stroke="#A80000" stroke-width="14.4082"/>
<path d="M170.321 101.929L165.876 54.017C163.439 59.7107 156.31 70.9127 156.31 74.4286C156.31 84.034 151.03 98.0658 150.218 114.13L123.852 166.881C128.319 175.218 158.898 238.17 159.872 240.122C160.847 242.075 147.172 177.167 150.218 170.253C152.045 167 155.822 160.005 156.31 158.053C156.797 156.101 161.386 144.632 163.62 139.142L170.321 101.929Z" fill="#645555"/>
<path d="M69.8214 120.054L96.2363 90.0374L81.8282 118.854C83.4527 124.547 83.8152 133.773 86.252 136.701C88.6888 139.63 103.07 220.698 101.039 234.119L84.2295 178.888L73.4234 146.469L69.8214 120.054Z" fill="#645555"/>
<path d="M228.804 56.1767L255 33.6054C250.329 42.5526 240.501 61.057 238.551 63.4972C236.602 65.9373 235.302 88.5086 234.896 99.4893L240.988 131.821L234.896 225.714L219.666 146.462V136.701L214.184 92.1688L228.804 56.1767Z" fill="#645555"/>
<path d="M287.145 184.891C301.553 169.282 309.957 129.66 309.957 104.446C323.165 177.687 304.396 195.668 301.553 210.105C301.025 212.784 299.816 195.14 287.145 184.891Z" fill="#645555"/>
<path d="M215.166 373.715C204.968 379.545 174.455 352.733 158.672 339.779C236.858 377.671 286.148 288.715 303.954 238.922L306.222 269.27C307.031 271.294 310.592 279.836 318.362 297.81C254.016 367.643 227.914 366.429 215.166 373.715Z" fill="#504444"/>
</svg>
