<svg width="400" height="400" viewBox="0 0 400 400" fill="none" xmlns="http://www.w3.org/2000/svg">
<path d="M200 42L311.723 88.2771L358 200L311.723 311.723L200 358L88.2771 311.723L42 200L88.2771 88.2771L200 42Z" fill="#3A3921"/>
<path d="M200 48.0769L307.426 92.5741L351.923 200L307.426 307.426L200 351.923L92.5742 307.426L48.077 200L92.5742 92.5741L200 48.0769Z" fill="#51A1B3"/>
<path d="M200 76.9423L272.332 100.444L317.035 161.973V238.027L272.332 299.556L200 323.058L127.669 299.556L82.9653 238.027V161.973L127.669 100.444L200 76.9423Z" fill="#74D8EE"/>
<path d="M200 118.721L247.774 134.244L277.301 174.883V225.117L247.774 265.756L200 281.279L152.225 265.756L122.699 225.117V174.883L152.225 134.244L200 118.721Z" fill="#89EAFF"/>
</svg>
