<svg width="400" height="400" viewBox="0 0 400 400" fill="none" xmlns="http://www.w3.org/2000/svg">
<path d="M78.9213 252.45C95.6908 245.38 136.984 220.343 175.107 203.057L192.004 274.546L93.2191 298.399C91.7334 299.962 85.8582 307.335 72.4223 321.339C55.7726 324.524 46.4263 313.308 46.4263 296.643L56.8247 283.645C53.2411 282.376 42.9054 278.794 32.1285 274.546C18.6574 269.237 42.6685 246.264 45.1264 243.351C47.0928 241.021 69.8421 247.254 78.9213 252.45Z" fill="#470817"/>
<path d="M128.949 252.241C116.758 138.019 283.975 79.8464 297.908 76.9765L362.278 271.571C287.582 303.14 138.702 343.618 128.949 252.241Z" fill="#470817"/>
<path d="M296.502 76.9765C253.773 107.016 295.114 267.413 361.704 271.947C388.341 239.074 380.295 89.4455 296.502 76.9765Z" fill="#470817"/>
<ellipse cx="15.5492" cy="29.7724" rx="15.5492" ry="29.7724" transform="matrix(0.977071 -0.212913 0.217286 0.976108 315.809 146.978)" fill="#470817"/>
<ellipse cx="8.97371" cy="17.1822" rx="8.97371" ry="17.1822" transform="matrix(0.977071 -0.212913 0.217286 0.976108 322.062 157.864)" fill="#470817"/>
<path d="M78.5724 262.903C95.2187 256.186 148.034 232.317 185.881 215.901L193.587 258.225L89.0921 290.977C87.614 292.455 82.0584 299.111 71.6608 313.912C55.147 316.97 53.3428 304.035 54.505 297.184L66.6151 281.344C63.0677 280.161 53.3063 276.805 42.6397 272.842C29.3064 267.888 46.7377 253.821 49.1842 251.068C51.1414 248.867 69.5918 258.041 78.5724 262.903Z" fill="#AD9F9F"/>
<path d="M139.317 248.404C128.38 144.77 280.447 89.5678 292.945 86.9639L351.272 266.111C284.266 294.753 148.066 331.312 139.317 248.404Z" fill="#985F5F"/>
<path d="M293.466 86.4432C253.367 114.044 290.342 261.424 352.835 265.59C377.832 235.385 372.103 97.9002 293.466 86.4432Z" fill="#9D4B5F"/>
<ellipse cx="327.499" cy="176.232" rx="13.9686" ry="27.006" transform="rotate(-12.4208 327.499 176.232)" fill="#D9D9D9"/>
<ellipse cx="327.719" cy="175.545" rx="8.36542" ry="16.1731" transform="rotate(-12.4208 327.719 175.545)" fill="#823A4B"/>
<path d="M352.835 265.59C370.541 241.113 368.528 195.301 362.278 169.262C358.19 194.237 353.355 266.631 292.425 207.263C300.757 227.573 322.63 265.59 352.835 265.59Z" fill="#823A4B"/>
<path d="M142.441 260.382C224.516 279.547 276.801 233.302 292.425 208.305C304.402 234.864 322.63 259.861 352.835 265.59C265.865 303.086 160.669 320.271 142.441 260.382Z" fill="#794444"/>
<path d="M79.4277 280.692C80.6776 279.442 121.437 266.631 141.4 260.382L147.129 272.881C128.033 279.13 90.1557 291.108 89.3225 291.108C88.2809 291.108 82.5524 299.44 71.6161 314.022C62.2422 315.584 55.4721 312.98 54.4305 302.565C63.8045 314.543 77.8654 282.255 79.4277 280.692Z" fill="#867373"/>
<path d="M139.317 248.404C128.38 144.77 280.447 89.5678 292.945 86.9639L351.272 266.111C284.266 294.753 148.066 331.312 139.317 248.404Z" fill="#6C4343"/>
<path d="M293.466 86.4432C253.366 114.044 290.342 261.424 352.834 265.59C377.832 235.385 372.103 97.9002 293.466 86.4432Z" fill="#9D4B5F"/>
<path d="M352.835 265.59C370.541 241.113 368.528 195.301 362.278 169.262C358.19 194.237 353.355 266.631 292.425 207.263C300.757 227.573 322.63 265.59 352.835 265.59Z" fill="#823A4B"/>
<path d="M303.769 93.9506C295.004 100.74 278.791 120.43 284.049 144.873C299.825 134.01 303.769 106.398 303.769 93.9506Z" fill="#7D3A46"/>
<path d="M326.401 105.267C313.653 115.074 290.07 143.515 297.718 178.821C320.664 163.13 326.401 123.247 326.401 105.267Z" fill="#7D3A46"/>
<path d="M341.489 135.443C327.148 146.508 300.616 178.595 309.221 218.428C335.035 200.724 341.489 155.728 341.489 135.443Z" fill="#7D3A46"/>
<path d="M352.805 163.733C341.651 173.54 321.015 201.982 327.708 237.288C347.786 221.596 352.805 181.713 352.805 163.733Z" fill="#7D3A46"/>
<path d="M362.235 201.453C351.877 209.249 332.716 231.856 338.93 259.92C357.574 247.447 362.235 215.745 362.235 201.453Z" fill="#7D3A46"/>
<ellipse cx="327.499" cy="176.232" rx="13.9686" ry="27.006" transform="rotate(-12.4208 327.499 176.232)" fill="#D9D9D9"/>
<ellipse cx="327.719" cy="175.545" rx="8.36542" ry="16.1731" transform="rotate(-12.4208 327.719 175.545)" fill="#823A4B"/>
<path d="M142.441 260.382C224.515 279.547 276.801 233.302 292.424 208.305C304.402 234.864 322.629 259.861 352.834 265.59C265.865 303.086 160.668 320.271 142.441 260.382Z" fill="#523333"/>
<path d="M231.723 124.127C243.983 117.526 269.821 103.758 275.102 101.495C265.295 117.337 260.643 142.044 262.843 151.474C259.071 152.417 248.132 154.869 227.008 164.676C217.201 157.132 227.637 134.5 231.723 124.127Z" fill="#523333"/>
<path d="M178.915 160.904C189.288 147.702 211.92 135.443 215.692 132.614C208.148 150.72 207.834 164.676 210.977 169.391C200.29 172.22 171.93 193.777 171.37 190.137C169.484 177.878 167.598 170.334 178.915 160.904Z" fill="#523333"/>
<path d="M279.816 208.054C275.101 197.681 266.614 162.79 266.614 160.904C260.327 164.047 245.113 168.637 227.007 180.707C222.481 190.515 233.923 216.856 240.209 228.801C244.924 224.714 260.955 221.634 279.816 208.054Z" fill="#523333"/>
<path d="M227.007 232.573C220.218 225.029 216.634 198.624 215.691 186.365C202.489 194.224 177.406 203.528 171.37 208.054C165.335 212.581 171.056 236.345 176.085 243.889C184.258 242.946 205.884 239.362 227.007 232.573Z" fill="#523333"/>
<path d="M166.655 195.795C164.14 193.281 163.449 181.462 161.94 180.707C158.482 189.194 146.475 213.335 144.966 215.599C143.457 217.862 158.797 203.339 166.655 195.795Z" fill="#523333"/>
<path d="M168.541 243.889C164.769 242.38 160.997 225.029 160.054 216.542C135.536 230.687 142.137 242.003 143.08 245.775C144.023 249.547 146.852 245.775 168.541 243.889Z" fill="#523333"/>
</svg>
