<svg width="400" height="400" viewBox="0 0 400 400" fill="none" xmlns="http://www.w3.org/2000/svg">
<path d="M69.1218 256.657C87.249 249.015 131.885 221.951 173.095 203.265L191.36 280.542L84.5772 306.326C82.9712 308.016 76.6204 315.985 62.0966 331.124C44.0989 334.566 33.9958 322.442 33.9958 304.428L45.2361 290.378C41.3625 289.006 30.1899 285.134 18.5405 280.542C3.97874 274.803 29.9338 249.97 32.5908 246.821C34.7163 244.303 59.3075 251.04 69.1218 256.657Z" fill="#470817"/>
<path d="M123.2 256.431C110.021 132.961 290.777 70.0788 305.838 66.9765L375.42 277.326C294.676 311.451 133.742 355.206 123.2 256.431Z" fill="#470817"/>
<path d="M304.318 66.9765C258.13 99.4476 302.818 272.831 374.8 277.732C403.593 242.198 394.895 80.4551 304.318 66.9765Z" fill="#470817"/>
<ellipse cx="16.8081" cy="32.1829" rx="16.8081" ry="32.1829" transform="matrix(0.977071 -0.212913 0.217286 0.976108 325.189 142.646)" fill="#470817"/>
<ellipse cx="9.70026" cy="18.5733" rx="9.70026" ry="18.5733" transform="matrix(0.977071 -0.212913 0.217286 0.976108 331.948 154.413)" fill="#470817"/>
<path d="M68.7445 267.957C86.7386 260.695 143.83 234.894 184.742 217.149L193.072 262.9L80.1159 298.303C78.5181 299.901 72.5127 307.096 61.2733 323.096C43.4225 326.401 41.4723 312.418 42.7285 305.013L55.8191 287.89C51.9845 286.612 41.4328 282.984 29.9026 278.7C15.4898 273.345 34.3323 258.139 36.9769 255.164C39.0925 252.784 59.0368 262.701 68.7445 267.957Z" fill="#D9D9D9"/>
<path d="M134.407 252.284C122.585 140.259 286.964 80.5872 300.474 77.7726L363.523 271.424C291.092 302.385 143.864 341.904 134.407 252.284Z" fill="#985F5F"/>
<path d="M301.037 77.2096C257.691 107.045 297.659 266.357 365.212 270.861C392.233 238.21 386.041 89.5943 301.037 77.2096Z" fill="#EA7FB2"/>
<ellipse cx="337.825" cy="174.268" rx="15.0996" ry="29.1926" transform="rotate(-12.4208 337.825 174.268)" fill="#D9D9D9"/>
<ellipse cx="338.063" cy="173.526" rx="9.04272" ry="17.4826" transform="rotate(-12.4208 338.063 173.526)" fill="#AF537F"/>
<path d="M365.212 270.861C384.352 244.403 382.176 194.881 375.42 166.734C371.001 193.731 365.775 271.987 299.911 207.812C308.918 229.766 332.562 270.861 365.212 270.861Z" fill="#AF537F"/>
<path d="M137.785 265.231C226.504 285.948 283.023 235.959 299.911 208.937C312.859 237.647 332.562 264.668 365.212 270.861C271.201 311.392 157.487 329.969 137.785 265.231Z" fill="#794444"/>
<path d="M69.669 287.186C71.02 285.835 115.079 271.987 136.659 265.231L142.851 278.742C122.21 285.497 81.2655 298.445 80.3648 298.445C79.2389 298.445 73.0466 307.452 61.2249 323.214C51.092 324.903 43.7738 322.088 42.6479 310.829C52.7808 323.777 67.9802 288.875 69.669 287.186Z" fill="#B8B8B8"/>
<path d="M68.7445 267.957C86.7386 260.695 143.83 234.894 184.742 217.149L193.072 262.9L80.1159 298.303C78.5181 299.901 72.5127 307.096 61.2733 323.096C43.4225 326.401 41.4723 312.418 42.7285 305.013L55.8191 287.89C51.9845 286.612 41.4328 282.984 29.9026 278.7C15.4898 273.345 34.3323 258.139 36.9769 255.164C39.0925 252.784 59.0368 262.701 68.7445 267.957Z" fill="#D9D9D9"/>
<path d="M134.407 252.284C122.585 140.259 286.964 80.5872 300.474 77.7726L363.523 271.424C291.092 302.385 143.864 341.904 134.407 252.284Z" fill="#985F5F"/>
<path d="M301.037 77.2096C257.691 107.045 297.659 266.357 365.212 270.861C392.233 238.21 386.041 89.5943 301.037 77.2096Z" fill="#EA7FB2"/>
<ellipse cx="337.825" cy="174.268" rx="15.0996" ry="29.1926" transform="rotate(-12.4208 337.825 174.268)" fill="#D9D9D9"/>
<ellipse cx="338.063" cy="173.526" rx="9.04272" ry="17.4826" transform="rotate(-12.4208 338.063 173.526)" fill="#AF537F"/>
<path d="M365.212 270.861C384.352 244.403 382.176 194.881 375.42 166.734C371.001 193.731 365.775 271.987 299.911 207.812C308.918 229.766 332.562 270.861 365.212 270.861Z" fill="#AF537F"/>
<path d="M137.785 265.231C226.504 285.948 283.023 235.959 299.911 208.937C312.859 237.647 332.562 264.668 365.212 270.861C271.201 311.392 157.487 329.969 137.785 265.231Z" fill="#794444"/>
<path d="M69.669 287.186C71.02 285.835 115.079 271.987 136.659 265.231L142.851 278.742C122.21 285.497 81.2655 298.445 80.3648 298.445C79.2389 298.445 73.0466 307.452 61.2249 323.214C51.092 324.903 43.7738 322.088 42.6479 310.829C52.7808 323.777 67.9802 288.875 69.669 287.186Z" fill="#B8B8B8"/>
<path d="M236.776 114.838C250.028 107.703 277.959 92.8202 283.667 90.3737C273.066 107.499 268.037 134.206 270.415 144.4C266.338 145.419 254.513 148.069 231.679 158.671C221.078 150.516 232.359 126.051 236.776 114.838Z" fill="#794444"/>
<path d="M179.692 154.593C190.905 140.322 215.37 127.071 219.447 124.012C211.292 143.584 210.952 158.671 214.35 163.767C202.797 166.825 172.142 190.128 171.537 186.193C169.498 172.942 167.459 164.787 179.692 154.593Z" fill="#794444"/>
<path d="M288.762 205.561C283.666 194.348 274.491 156.632 274.491 154.593C267.696 157.991 251.25 162.952 231.678 176C226.785 186.601 239.154 215.075 245.949 227.987C251.046 223.57 268.375 220.24 288.762 205.561Z" fill="#794444"/>
<path d="M231.678 232.064C224.339 223.909 220.465 195.367 219.446 182.116C205.175 190.61 178.061 200.668 171.537 205.561C165.013 210.454 171.197 236.142 176.633 244.297C185.468 243.277 208.845 239.404 231.678 232.064Z" fill="#794444"/>
<path d="M166.44 192.309C163.722 189.591 162.974 176.815 161.343 176C157.605 185.174 144.626 211.269 142.995 213.716C141.364 216.162 157.945 200.464 166.44 192.309Z" fill="#794444"/>
<path d="M168.478 244.297C164.401 242.666 160.324 223.909 159.304 214.735C132.801 230.026 139.936 242.258 140.956 246.335C141.975 250.413 145.033 246.335 168.478 244.297Z" fill="#794444"/>
</svg>
