<svg width="400" height="400" viewBox="0 0 400 400" fill="none" xmlns="http://www.w3.org/2000/svg">
<path d="M199.578 42.1964C199.846 42.0719 200.154 42.0719 200.422 42.1964L249.097 64.8544C249.149 64.8787 249.204 64.8985 249.26 64.9135L301.111 78.8442C301.396 78.9208 301.633 79.1193 301.757 79.3867L324.48 128.031C324.505 128.084 324.534 128.134 324.567 128.181L355.333 172.182C355.502 172.424 355.556 172.728 355.479 173.013L341.618 224.883C341.603 224.939 341.593 224.996 341.588 225.054L336.873 278.536C336.847 278.83 336.693 279.098 336.451 279.267L292.491 310.092C292.444 310.125 292.399 310.162 292.359 310.203L254.369 348.143C254.16 348.351 253.869 348.457 253.575 348.431L200.086 343.788C200.029 343.783 199.971 343.783 199.914 343.788L146.425 348.431C146.131 348.457 145.84 348.351 145.631 348.143L107.641 310.203C107.601 310.162 107.556 310.125 107.509 310.092L63.5491 279.267C63.3075 279.098 63.153 278.83 63.1271 278.536L58.412 225.054C58.4069 224.996 58.3968 224.939 58.3819 224.883L44.5206 173.013C44.4444 172.728 44.498 172.424 44.6671 172.182L75.4331 128.181C75.4662 128.134 75.4952 128.084 75.5196 128.031L98.2426 79.3867C98.3675 79.1193 98.6041 78.9208 98.8891 78.8442L150.74 64.9135C150.796 64.8985 150.851 64.8787 150.903 64.8544L199.578 42.1964Z" fill="#411C39"/>
<path d="M199.578 48.2733C199.846 48.1488 200.154 48.1488 200.422 48.2733L247.206 70.0508C247.258 70.0752 247.312 70.095 247.368 70.11L297.205 83.4994C297.49 83.576 297.726 83.7745 297.851 84.0419L319.691 130.796C319.716 130.849 319.745 130.899 319.778 130.946L349.348 173.237C349.517 173.479 349.571 173.783 349.495 174.069L336.172 223.923C336.157 223.979 336.147 224.036 336.142 224.093L331.61 275.498C331.584 275.792 331.43 276.059 331.188 276.229L288.936 305.856C288.889 305.889 288.845 305.926 288.804 305.967L252.29 342.432C252.081 342.641 251.791 342.746 251.497 342.721L200.086 338.258C200.029 338.253 199.971 338.253 199.914 338.258L148.503 342.721C148.209 342.746 147.919 342.641 147.71 342.432L111.196 305.967C111.155 305.926 111.111 305.889 111.064 305.856L68.8119 276.229C68.5703 276.059 68.4158 275.792 68.3899 275.498L63.858 224.093C63.8529 224.036 63.8428 223.979 63.8279 223.923L50.5052 174.069C50.429 173.783 50.4826 173.479 50.6517 173.237L80.2222 130.946C80.2554 130.899 80.2843 130.849 80.3087 130.796L102.149 84.0419C102.274 83.7745 102.51 83.576 102.795 83.4994L152.632 70.11C152.688 70.095 152.742 70.0752 152.794 70.0508L199.578 48.2733Z" fill="#8D0FC9"/>
<path d="M199.578 74.8599C199.846 74.7354 200.154 74.7354 200.422 74.8599L238.931 92.7855C238.983 92.8099 239.038 92.8297 239.093 92.8447L280.115 103.866C280.4 103.942 280.637 104.141 280.762 104.408L298.739 142.893C298.763 142.946 298.792 142.996 298.825 143.043L323.166 177.854C323.335 178.096 323.388 178.4 323.312 178.685L312.346 219.722C312.331 219.778 312.321 219.835 312.316 219.892L308.586 262.205C308.56 262.499 308.405 262.766 308.163 262.936L273.385 287.322C273.338 287.355 273.293 287.393 273.253 287.433L243.197 317.449C242.988 317.657 242.698 317.763 242.404 317.738L200.086 314.064C200.029 314.059 199.971 314.059 199.914 314.064L157.596 317.738C157.302 317.763 157.012 317.657 156.803 317.449L126.747 287.433C126.707 287.393 126.662 287.355 126.615 287.322L91.8365 262.936C91.5949 262.766 91.4404 262.499 91.4145 262.205L87.6841 219.892C87.6791 219.835 87.669 219.778 87.6541 219.722L76.6878 178.685C76.6116 178.4 76.6652 178.096 76.8343 177.854L101.175 143.043C101.208 142.996 101.237 142.946 101.261 142.893L119.238 104.408C119.363 104.141 119.6 103.942 119.885 103.866L160.907 92.8447C160.962 92.8297 161.017 92.8099 161.069 92.7855L199.578 74.8599Z" fill="#B10DFF"/>
<path d="M199.578 118.158C199.846 118.033 200.154 118.033 200.422 118.158L225.455 129.811C225.507 129.835 225.562 129.855 225.617 129.87L252.284 137.034C252.569 137.111 252.805 137.309 252.93 137.577L264.616 162.594C264.641 162.646 264.67 162.696 264.703 162.744L280.525 185.373C280.694 185.615 280.748 185.919 280.672 186.204L273.543 212.88C273.528 212.936 273.518 212.993 273.513 213.05L271.088 240.556C271.062 240.85 270.908 241.117 270.666 241.286L248.058 257.139C248.011 257.172 247.967 257.21 247.926 257.25L228.388 276.762C228.179 276.971 227.889 277.076 227.595 277.051L200.086 274.663C200.029 274.658 199.971 274.658 199.914 274.663L172.405 277.051C172.111 277.076 171.821 276.971 171.612 276.762L152.074 257.25C152.033 257.21 151.989 257.172 151.942 257.139L129.334 241.286C129.092 241.117 128.938 240.85 128.912 240.556L126.487 213.05C126.482 212.993 126.472 212.936 126.457 212.88L119.328 186.204C119.252 185.919 119.306 185.615 119.475 185.373L135.297 162.744C135.33 162.696 135.359 162.646 135.384 162.594L147.07 137.577C147.195 137.309 147.431 137.111 147.716 137.034L174.383 129.87C174.438 129.855 174.493 129.835 174.545 129.811L199.578 118.158Z" fill="#DC93FF"/>
</svg>
