<svg width="400" height="400" viewBox="0 0 400 400" fill="none" xmlns="http://www.w3.org/2000/svg">
<path d="M204 52L311.48 96.5198L356 204L311.48 311.48L204 356L96.5198 311.48L52 204L96.5198 96.5198L204 52Z" fill="#3A3921"/>
<path d="M204 57.8461L307.346 100.654L350.154 204L307.346 307.346L204 350.154L100.654 307.346L57.8462 204L100.654 100.654L204 57.8461Z" fill="#70692C"/>
<path d="M204 85.6154L280.096 113.312L320.586 183.443L306.524 263.192L244.49 315.245H163.51L101.476 263.192L87.4139 183.443L127.904 113.312L204 85.6154Z" fill="#BCB736"/>
<path d="M204 125.808L259.29 148.71L282.192 204L259.29 259.29L204 282.192L148.71 259.29L125.808 204L148.71 148.71L204 125.808Z" fill="#D6D045"/>
</svg>
